<svg width="120" height="14" viewBox="0 0 120 14" fill="none" xmlns="http://www.w3.org/2000/svg">
<g id="logo">
<g id="XMLID_234_">
<path id="XMLID_243_" d="M9.42298 1.52882V8.16343C9.42298 10.375 8.46144 11.2884 6.15375 11.2884C3.84606 11.2884 2.88452 10.375 2.88452 8.16343V1.24036H0.672983C0.528752 1.24036 0.384521 1.38459 0.384521 1.52882V8.25959C0.384521 11.9615 2.74029 13.2596 6.15375 13.2596C9.56721 13.2596 11.923 11.9615 11.923 8.25959V1.24036H9.71144C9.56721 1.24036 9.42298 1.33651 9.42298 1.52882Z" fill="black"/>
<path id="XMLID_242_" d="M41.5865 3.16343C41.7788 3.16343 41.8749 3.11536 41.923 2.97113L42.548 1.38459C42.5961 1.28843 42.548 1.24036 42.4519 1.24036H33.5096C32.6923 1.24036 32.3557 1.48074 32.3557 2.05766V12.3461C32.3557 12.8269 32.5961 13.0673 33.2211 13.0673H41.5384C41.7307 13.0673 41.8269 13.0192 41.8749 12.875L42.4999 11.2884C42.548 11.1923 42.4999 11.1442 42.4038 11.1442H34.8076V9.02882C34.8076 8.30766 35.1923 7.97113 36.298 7.97113H39.6153C39.8076 7.97113 39.9038 7.92305 39.9519 7.77882L40.5769 6.24036C40.6249 6.1442 40.5769 6.09613 40.4807 6.09613H34.8557V3.11536H41.5865V3.16343Z" fill="black"/>
<path id="XMLID_238_" fill-rule="evenodd" clip-rule="evenodd" d="M25.8653 6.81728C26.8268 6.28843 27.2115 5.37497 27.2115 4.22113C27.2115 1.62497 25.0961 1.24036 22.8845 1.24036H17.8365C17.0192 1.24036 16.6826 1.48074 16.6826 2.05766V12.3461C16.6826 12.8269 16.923 13.0673 17.548 13.0673H23.7499C26.1057 13.0673 27.7403 12.1538 27.7403 9.79805C27.7884 8.35574 27.2115 7.15382 25.8653 6.81728ZM19.1826 3.11536H23.0768C24.3749 3.11536 24.7595 3.59613 24.7595 4.60574C24.7595 5.61536 24.3749 6.09613 23.0768 6.09613H19.1826V3.11536ZM19.1826 11.1442H23.5576C24.9518 11.1442 25.3365 10.6634 25.3365 9.55766C25.3365 8.4519 24.9518 7.92305 23.5576 7.92305H20.673C19.5672 7.92305 19.1826 8.25959 19.1826 8.98074V11.1442Z" fill="black"/>
<path id="XMLID_235_" fill-rule="evenodd" clip-rule="evenodd" d="M55.3846 8.30766L58.0288 12.875C58.0769 12.923 58.0769 13.0673 57.9808 13.0673H55.7212C55.5288 13.0673 55.4808 13.0192 55.3846 12.875L52.9808 8.54805H50.8173C49.7115 8.54805 49.3269 8.88459 49.3269 9.60574V13.0673H47.1635C47.0192 13.0673 46.875 12.923 46.875 12.7788V2.05766C46.875 1.48074 47.2115 1.24036 48.0288 1.24036H53.0769C56.0096 1.24036 57.7885 2.00959 57.7885 4.8942C57.7885 7.10574 56.6827 7.97113 55.3846 8.30766ZM49.2788 6.72113H53.4135C54.9519 6.72113 55.2885 6.1442 55.2885 4.8942C55.2885 3.69228 54.9519 3.11536 53.4135 3.11536H49.2788V6.72113Z" fill="black"/>
</g>
<g id="XMLID_224_">
<path id="XMLID_232_" d="M76.4421 12.0096L76.394 13.0673H67.644V1.24036H76.0575L76.1056 2.34613H68.846V6.43266H75.096V7.3942H68.846V12.0096H76.4421Z" fill="#57AD56" stroke="#57AD56" stroke-width="0.25"/>
<g id="XMLID_229_">
<path fill-rule="evenodd" clip-rule="evenodd" d="M83.7018 9.99036H90.673L92.0192 13.0673H93.3653L87.9326 1.24036H86.5384L81.0576 13.0673H82.3557L83.7018 9.99036ZM84.1345 8.98074L86.6826 3.25959L87.1634 2.05766H87.2115L87.6922 3.25959L90.1922 8.98074H84.1345Z" fill="#57AD56"/>
<path d="M90.673 9.99036L90.7875 9.94025L90.7548 9.86536H90.673V9.99036ZM83.7018 9.99036V9.86536H83.6201L83.5873 9.94025L83.7018 9.99036ZM92.0192 13.0673L91.9046 13.1174L91.9374 13.1923H92.0192V13.0673ZM93.3653 13.0673V13.1923H93.5603L93.4789 13.0151L93.3653 13.0673ZM87.9326 1.24036L88.0462 1.18818L88.0128 1.11536H87.9326V1.24036ZM86.5384 1.24036V1.11536H86.4585L86.425 1.1878L86.5384 1.24036ZM81.0576 13.0673L80.9442 13.0147L80.8619 13.1923H81.0576V13.0673ZM82.3557 13.0673V13.1923H82.4374L82.4702 13.1174L82.3557 13.0673ZM86.6826 3.25959L86.7969 3.31048L86.7987 3.30601L86.6826 3.25959ZM84.1345 8.98074L84.0204 8.92989L83.942 9.10574H84.1345V8.98074ZM87.1634 2.05766V1.93266H87.0788L87.0473 2.01124L87.1634 2.05766ZM87.2115 2.05766L87.3275 2.01124L87.2961 1.93266H87.2115V2.05766ZM87.6922 3.25959L87.5761 3.30603L87.5777 3.30964L87.6922 3.25959ZM90.1922 8.98074V9.10574H90.3833L90.3068 8.93069L90.1922 8.98074ZM90.673 9.86536H83.7018V10.1154H90.673V9.86536ZM92.1337 13.0172L90.7875 9.94025L90.5585 10.0405L91.9046 13.1174L92.1337 13.0172ZM93.3653 12.9423H92.0192V13.1923H93.3653V12.9423ZM87.819 1.29253L93.2517 13.1195L93.4789 13.0151L88.0462 1.18818L87.819 1.29253ZM86.5384 1.36536H87.9326V1.11536H86.5384V1.36536ZM81.171 13.1198L86.6518 1.29291L86.425 1.1878L80.9442 13.0147L81.171 13.1198ZM82.3557 12.9423H81.0576V13.1923H82.3557V12.9423ZM83.5873 9.94025L82.2412 13.0172L82.4702 13.1174L83.8164 10.0405L83.5873 9.94025ZM86.5684 3.20873L84.0204 8.92989L84.2487 9.0316L86.7968 3.31044L86.5684 3.20873ZM87.0473 2.01124L86.5666 3.21316L86.7987 3.30601L87.2794 2.10409L87.0473 2.01124ZM87.2115 1.93266H87.1634V2.18266H87.2115V1.93266ZM87.8083 3.21316L87.3275 2.01124L87.0954 2.10409L87.5762 3.30601L87.8083 3.21316ZM90.3068 8.93069L87.8068 3.20954L87.5777 3.30964L90.0777 9.03079L90.3068 8.93069ZM84.1345 9.10574H90.1922V8.85574H84.1345V9.10574Z" fill="#57AD56"/>
</g>
<path id="XMLID_227_" d="M102.019 2.34613V13.0673H100.817V2.34613H96.394L96.4421 1.24036H106.49V2.34613H102.019Z" fill="#57AD56" stroke="#57AD56" stroke-width="0.25"/>
<path id="XMLID_225_" d="M115.048 13.3077C113.413 13.3077 112.115 12.9231 111.058 12.2981L111.25 11.2404C112.356 11.8654 113.606 12.25 115.096 12.25C117.308 12.25 118.461 11.2404 118.461 9.79808C118.461 6.67308 111.25 8.30769 111.25 4.26923C111.25 2.53846 112.548 1 115.577 1C116.971 1 118.221 1.24038 119.231 1.72115L119.038 2.73077C117.933 2.29808 116.875 2.05769 115.625 2.05769C113.269 2.05769 112.404 3.11538 112.404 4.17308C112.404 7.15385 119.615 5.47115 119.615 9.70192C119.567 11.8173 118.029 13.3077 115.048 13.3077Z" fill="#57AD56" stroke="#57AD56" stroke-width="0.25"/>
</g>
</g>
</svg>
